<svg width="1em" height="1em" viewBox="0 0 24 24" fill="none" xmlns="http://www.w3.org/2000/svg">
<path d="M8.80715 11.9996C8.80715 12.765 9.13194 13.499 9.71006 14.0402C10.2882 14.5815 11.0723 14.8855 11.8899 14.8855C12.7075 14.8855 13.4916 14.5815 14.0697 14.0402C14.6479 13.499 14.9726 12.765 14.9726 11.9996C14.9726 11.2342 14.6479 10.5002 14.0697 9.95898C13.4916 9.41777 12.7075 9.11372 11.8899 9.11372C11.0723 9.11372 10.2882 9.41777 9.71006 9.95898C9.13194 10.5002 8.80715 11.2342 8.80715 11.9996ZM23.841 11.3348C21.2317 6.18918 17.2875 3.59961 12 3.59961C6.70978 3.59961 2.76827 6.18918 0.158941 11.3374C0.0542802 11.5449 0 11.7715 0 12.0009C0 12.2303 0.0542802 12.4569 0.158941 12.6644C2.76827 17.81 6.71253 20.3996 12 20.3996C17.2902 20.3996 21.2317 17.81 23.841 12.6618C24.053 12.2444 24.053 11.76 23.841 11.3348ZM11.8899 16.5346C9.21451 16.5346 7.04558 14.5041 7.04558 11.9996C7.04558 9.49507 9.21451 7.46464 11.8899 7.46464C14.5653 7.46464 16.7342 9.49507 16.7342 11.9996C16.7342 14.5041 14.5653 16.5346 11.8899 16.5346Z" fill="#D7D5D5"/>
</svg>
