<svg width="1em" height="1em" viewBox="0 0 24 24" fill="none" xmlns="http://www.w3.org/2000/svg">
<g clip-path="url(#clip0_220_2212)">
<path d="M16.8408 11.8812L21.474 7.248C23.298 9.2364 23.9892 11.2284 24.0012 11.2692L24.1284 11.6484L24.0024 12.0276C23.976 12.108 21.2232 20.0484 12.0636 20.0484C10.9488 20.0484 9.93362 19.926 9.00122 19.7208L12.2964 16.4256C13.4829 16.3674 14.6053 15.87 15.4452 15.03C16.2852 14.1901 16.7827 13.0677 16.8408 11.8812ZM12.0636 3.2484C14.2896 3.2484 16.1136 3.7332 17.634 4.446L21.3729 0.707106C21.7634 0.316582 22.3966 0.316583 22.7871 0.707107L23.0697 0.989693C23.4602 1.38022 23.4602 2.01338 23.0697 2.40391L2.88392 22.5897C2.4934 22.9802 1.86024 22.9802 1.46971 22.5897L1.18712 22.3071C0.796598 21.9166 0.796598 21.2834 1.18712 20.8929L4.43762 17.6424C1.27202 15.2988 0.142817 12.078 0.126017 12.0276L1.71661e-05 11.6484L0.126017 11.2692C0.152416 11.1888 2.90402 3.2484 12.0636 3.2484ZM9.77642 12.3036C9.55202 11.4912 9.74282 10.5768 10.3668 9.9516C10.9908 9.3264 11.9064 9.1368 12.7188 9.3612L14.5284 7.5516C13.7869 7.09558 12.9342 6.85231 12.0636 6.8484C9.41642 6.8484 7.26362 9.0012 7.26362 11.6484C7.26718 12.5188 7.51093 13.3713 7.96802 14.112L9.77642 12.3036Z" fill="#D7D5D5"/>
</g>
<defs>
<clipPath id="clip0_220_2212">
<rect width="24" height="24" fill="white"/>
</clipPath>
</defs>
</svg>
