<svg xmlns="http://www.w3.org/2000/svg" storke-width="4" width="1em" height="1em" viewBox="0 0 31.772 37.791">
  <path id="notifications-2" d="M719.653,322.836a3.771,3.771,0,0,0,3.739-3.783h-7.477A3.772,3.772,0,0,0,719.653,322.836ZM731.8,311.488v-10.4a12.139,12.139,0,0,0-9.343-11.915v-1.324a2.8,2.8,0,0,0-5.607,0v1.324a12.139,12.139,0,0,0-9.345,11.915v10.4l-3.739,3.783v1.891h31.772V315.27Zm-3.739,1.891H711.243V301.087a8.41,8.41,0,1,1,16.82,0Z" transform="translate(-703.767 -285.045)" fill="#231916"/>
</svg>
