<svg width="1em" height="1em" viewBox="0 0 24 24" fill="none" xmlns="http://www.w3.org/2000/svg">
<path fill-rule="evenodd" clip-rule="evenodd" d="M6.80057 3.87227C8.17951 2.49058 10.0497 1.71436 11.9999 1.71436C13.95 1.71436 15.8202 2.49058 17.1992 3.87227C18.5781 5.25397 19.3528 7.12794 19.3528 9.08195C19.3528 13.2723 20.37 15.6835 21.1825 16.9463C21.5532 17.5224 21.4453 18.2159 21.2471 18.6643C21.0543 19.1006 20.5834 19.7144 19.8018 19.7144H4.19788C3.41636 19.7144 2.94543 19.1006 2.7526 18.6643C2.55441 18.2159 2.44657 17.5224 2.81722 16.9463C3.62969 15.6835 4.64696 13.2723 4.64696 9.08195C4.64696 7.12794 5.42164 5.25397 6.80057 3.87227ZM11.9999 3.39029C10.4933 3.39029 9.04854 3.98995 7.98328 5.05734C6.91801 6.12473 6.31955 7.57243 6.31955 9.08195C6.31955 13.5261 5.24383 16.2531 4.24402 17.8216C4.24398 17.8237 4.24397 17.8261 4.24401 17.8287C4.24458 17.868 4.25561 17.9261 4.28195 17.9857C4.29095 18.0061 4.3005 18.0237 4.30971 18.0384H19.69C19.6992 18.0237 19.7088 18.0061 19.7178 17.9857C19.7441 17.9261 19.7551 17.868 19.7557 17.8287C19.7557 17.8261 19.7557 17.8237 19.7557 17.8216C18.7559 16.2531 17.6802 13.5261 17.6802 9.08195C17.6802 7.57243 17.0817 6.12473 16.0164 5.05734C14.9512 3.98995 13.5064 3.39029 11.9999 3.39029ZM19.7545 17.8058C19.7545 17.8059 19.7546 17.8065 19.7548 17.8078L19.7545 17.8058ZM4.24526 17.8058C4.24529 17.8059 4.24519 17.8065 4.2449 17.8078L4.24526 17.8058Z" fill="#1B1B1C"/>
<path fill-rule="evenodd" clip-rule="evenodd" d="M8.16155 18.5222C8.56186 18.3038 9.04903 18.48 9.24966 18.9156C9.54459 19.556 9.9605 20.0714 10.4444 20.4225C10.9268 20.7725 11.4628 20.9496 11.9996 20.9496C12.5364 20.9496 13.0723 20.7725 13.5548 20.4225C14.0387 20.0714 14.4546 19.556 14.7495 18.9156C14.9501 18.48 15.4373 18.3038 15.8376 18.5222C16.2379 18.7405 16.3998 19.2707 16.1992 19.7063C15.7879 20.5994 15.1901 21.3569 14.4543 21.8907C13.7171 22.4255 12.8703 22.7142 11.9996 22.7142C11.1289 22.7142 10.282 22.4255 9.54487 21.8907C8.80908 21.3569 8.2113 20.5994 7.79998 19.7063C7.59935 19.2707 7.76123 18.7405 8.16155 18.5222Z" fill="#1B1B1C"/>
</svg>
